<svg xmlns="http://www.w3.org/2000/svg" viewBox="0 0 980 300">
  <defs>
    <linearGradient id="body" x1="0" x2="1">
      <stop offset="0" stop-color="#2a2f36"/>
      <stop offset="1" stop-color="#161b21"/>
    </linearGradient>
  </defs>
  <rect width="980" height="300" fill="#0a0d10"/>
  <!-- Simplified 190E silhouette for placeholder -->
  <g transform="translate(30,40)">
    <path d="M20,150 L120,150 L150,110 L330,110 L360,90 L520,90 L580,120 L810,120 L870,150 L900,170 L900,190 L40,190 L20,170 Z"
      fill="url(#body)" stroke="#0c0f12" stroke-width="3"/>
    <!-- Windows -->
    <path d="M350,110 L520,110 L560,130 L400,130 Z" fill="#5b7285" opacity="0.8"/>
    <path d="M200,130 L340,130 L355,112 L220,112 Z" fill="#5b7285" opacity="0.85"/>
    <!-- Wheels -->
    <circle cx="210" cy="190" r="34" fill="#0a0a0a" stroke="#2f3a44" stroke-width="6"/>
    <circle cx="720" cy="190" r="34" fill="#0a0a0a" stroke="#2f3a44" stroke-width="6"/>
    <!-- Grill hint -->
    <rect x="82" y="150" width="40" height="16" fill="#adb9c4" stroke="#65707a"/>
    <!-- Spoiler hint -->
    <rect x="850" y="120" width="70" height="8" fill="#1b2026"/>
  </g>
</svg>

